<?xml version="1.0" encoding="utf-8"?>
<!-- Generator: Adobe Illustrator 17.0.0, SVG Export Plug-In . SVG Version: 6.00 Build 0)  -->
<!DOCTYPE svg PUBLIC "-//W3C//DTD SVG 1.1//EN" "http://www.w3.org/Graphics/SVG/1.1/DTD/svg11.dtd">
<svg version="1.1" id="Layer_1" xmlns="http://www.w3.org/2000/svg" xmlns:xlink="http://www.w3.org/1999/xlink" x="0px" y="0px"
	 width="400px" height="338.704px" viewBox="86.89 246.425 400 338.704" style="enable-background:new 86.89 246.425 400 338.704;"
	 xml:space="preserve">
<g>
	
		<linearGradient id="SVGID_1_" gradientUnits="userSpaceOnUse" x1="134.2091" y1="386.3651" x2="258.7143" y2="386.3651" gradientTransform="matrix(1 0 0 -1 91.16 937.04)">
		<stop  offset="0.0241" style="stop-color:#010101;stop-opacity:0.2"/>
		<stop  offset="0.0783" style="stop-color:#010101;stop-opacity:0.1"/>
		<stop  offset="0.1084" style="stop-color:#010101;stop-opacity:0.0926"/>
		<stop  offset="0.2831" style="stop-color:#010101;stop-opacity:0.05"/>
		<stop  offset="0.7711" style="stop-color:#010101;stop-opacity:0.05"/>
		<stop  offset="0.9458" style="stop-color:#010101;stop-opacity:0.1"/>
		<stop  offset="0.9759" style="stop-color:#010101;stop-opacity:0.2"/>
	</linearGradient>
	<path style="fill:url(#SVGID_1_);" d="M349.401,549.724l0.474-1.899c-0.143,0.734-1.412,3.347-5.471,3.656
		c-7.515,0.571-18.708,0.49-18.708,0.49H296.87h-18.497h-28.826c0,0-11.191,0.082-18.708-0.49c-4.059-0.309-5.328-2.543-5.471-3.277
		l0.474,1.042c0,0,0.238,2.379,2.383,3.175c2.145,0.796,9.252,1.102,14.337,1.102c2.993,0,21.273,0,35.81,0
		c10.163,0,18.497,0,18.497,0c14.538,0,32.817,0,35.81,0c5.086,0,12.193-0.306,14.337-1.102S349.401,549.724,349.401,549.724z"/>
	
		<linearGradient id="SVGID_2_" gradientUnits="userSpaceOnUse" x1="196.4617" y1="344.8524" x2="196.4617" y2="375.594" gradientTransform="matrix(1 0 0 -1 91.16 929.29)">
		<stop  offset="0" style="stop-color:#010101;stop-opacity:0"/>
		<stop  offset="0.8133" style="stop-color:#010101;stop-opacity:0.1"/>
		<stop  offset="1" style="stop-color:#010101;stop-opacity:0.2"/>
	</linearGradient>
	<path style="fill:url(#SVGID_2_);" d="M296.871,553.528c0,0-8.334,0-18.497,0c-14.538,0-32.817,0-35.81,0
		c-0.342,0-0.692-0.002-1.05-0.005c2.211,6.555,3.786,31.605,3.786,31.605h33.073h18.497h33.073c0,0,1.574-25.05,3.786-31.605
		c-0.357,0.003-0.708,0.005-1.05,0.005C329.688,553.528,311.409,553.528,296.871,553.528z"/>
	<path style="fill:#070707;" d="M475.127,246.425H98.654c-6.497,0-11.764,5.267-11.764,11.764v199.636v20.432
		c0,6.497,5.267,11.764,11.764,11.764h376.473c6.497,0,11.764-5.266,11.764-11.764v-20.432V258.188
		C486.89,251.691,481.624,246.425,475.127,246.425z"/>
	<path style="fill:#323437;" d="M469.758,263.579c0.27,0,0.49,0.219,0.49,0.491v205.754c0,0.27-0.219,0.491-0.49,0.491h-365.69
		c-0.27,0-0.49-0.219-0.49-0.491V264.07c0-0.27,0.219-0.491,0.49-0.491H469.758 M469.758,262.746h-365.69
		c-0.73,0-1.324,0.594-1.324,1.324v205.754c0,0.73,0.594,1.324,1.324,1.324h365.689c0.73,0,1.324-0.593,1.324-1.324V264.07
		C471.082,263.34,470.488,262.746,469.758,262.746L469.758,262.746z"/>
	<path style="opacity:0.75;fill:#010101;enable-background:new    ;" d="M349.39,548.309c-0.076,0.619-0.427,1.666-1.882,2.206
		c-2.145,0.796-9.742,1.102-14.827,1.102c-2.993,0-21.273,0-35.81,0c0,0-8.334,0-18.497,0c-14.538,0-32.817,0-35.81,0
		c-5.086,0-12.683-0.306-14.827-1.102c-1.455-0.54-1.806-1.589-1.882-2.206h-0.01c0,0-0.251,1.9,1.892,2.697
		s9.742,1.102,14.827,1.102c2.993,0,21.273,0,35.81,0c10.163,0,18.497,0,18.497,0c14.538,0,32.817,0,35.81,0
		c5.086,0,12.683-0.306,14.827-1.102c2.144-0.796,1.892-2.697,1.892-2.697H349.39z"/>
	
		<linearGradient id="SVGID_3_" gradientUnits="userSpaceOnUse" x1="196.4626" y1="439.1273" x2="196.4626" y2="379.2276" gradientTransform="matrix(1 0 0 -1 91.16 929.29)">
		<stop  offset="0" style="stop-color:#767677"/>
		<stop  offset="0.1506" style="stop-color:#9A9BA0"/>
		<stop  offset="0.2023" style="stop-color:#A1A2A6"/>
		<stop  offset="0.283" style="stop-color:#B3B4B8"/>
		<stop  offset="0.3822" style="stop-color:#D4D4D7"/>
		<stop  offset="0.4121" style="stop-color:#E0E0E4"/>
		<stop  offset="0.4545" style="stop-color:#E0E0E4"/>
		<stop  offset="0.5244" style="stop-color:#B6B5B9"/>
		<stop  offset="0.5888" style="stop-color:#9B9A9F"/>
		<stop  offset="0.6431" style="stop-color:#8B8C90"/>
		<stop  offset="0.6807" style="stop-color:#86878B"/>
		<stop  offset="0.7678" style="stop-color:#8A8B8F"/>
		<stop  offset="1" style="stop-color:#8D8E93"/>
	</linearGradient>
	<path style="fill:url(#SVGID_3_);" d="M348.815,546.151c-1.062-0.899-12.173-10.702-14.623-14.786
		c-2.45-4.084-4.737-41.345-4.737-41.345h-32.584h-18.497h-33.073c0,0-1.796,37.259-4.248,41.345
		c-2.45,4.084-13.561,13.888-14.623,14.786c-1.062,0.898-3.104,2.858,4.411,3.431c7.515,0.571,18.708,0.49,18.708,0.49h28.826
		h18.497h28.826c0,0,11.191,0.082,18.708-0.49C351.919,549.009,349.877,547.048,348.815,546.151z"/>
	
		<linearGradient id="SVGID_4_" gradientUnits="userSpaceOnUse" x1="196.4626" y1="416.548" x2="196.4626" y2="388.0859" gradientTransform="matrix(1 0 0 -1 91.16 929.29)">
		<stop  offset="0" style="stop-color:#75767A;stop-opacity:0"/>
		<stop  offset="0.4495" style="stop-color:#75767A"/>
		<stop  offset="0.6084" style="stop-color:#66676B"/>
		<stop  offset="0.6754" style="stop-color:#6C6D71;stop-opacity:0.8289"/>
		<stop  offset="1" style="stop-color:#8A8B8F;stop-opacity:0"/>
	</linearGradient>
	<path style="fill:url(#SVGID_4_);" d="M348.815,546.151c-1.062-0.899-12.173-10.702-14.623-14.786
		c-2.45-4.084-4.737-41.345-4.737-41.345h-32.584h-18.497h-33.073c0,0-1.796,37.259-4.248,41.345
		c-2.45,4.084-13.561,13.888-14.623,14.786c-1.062,0.898-3.104,2.858,4.411,3.431c7.515,0.571,18.708,0.49,18.708,0.49h28.826
		h18.497h28.826c0,0,11.191,0.082,18.708-0.49C351.919,549.009,349.877,547.048,348.815,546.151z"/>
	
		<linearGradient id="SVGID_5_" gradientUnits="userSpaceOnUse" x1="134.1848" y1="379.5651" x2="258.7405" y2="379.5651" gradientTransform="matrix(1 0 0 -1 91.16 929.29)">
		<stop  offset="0.0241" style="stop-color:#575858"/>
		<stop  offset="0.0783" style="stop-color:#959595"/>
		<stop  offset="0.0952" style="stop-color:#ABAAAA"/>
		<stop  offset="0.1151" style="stop-color:#BFBEBE"/>
		<stop  offset="0.1381" style="stop-color:#D0CFCF"/>
		<stop  offset="0.1656" style="stop-color:#DCDCDB"/>
		<stop  offset="0.202" style="stop-color:#E4E4E3"/>
		<stop  offset="0.2831" style="stop-color:#E6E6E5"/>
		<stop  offset="0.7711" style="stop-color:#E6E6E5"/>
		<stop  offset="0.8062" style="stop-color:#E1E1E1"/>
		<stop  offset="0.844" style="stop-color:#D4D4D3"/>
		<stop  offset="0.883" style="stop-color:#C1BFBF"/>
		<stop  offset="0.9227" style="stop-color:#A7A6A6"/>
		<stop  offset="0.9458" style="stop-color:#959595"/>
		<stop  offset="0.95" style="stop-color:#888787"/>
		<stop  offset="0.9607" style="stop-color:#6C6C6C"/>
		<stop  offset="0.9697" style="stop-color:#5D5D5D"/>
		<stop  offset="0.9759" style="stop-color:#575858"/>
	</linearGradient>
	<path style="fill:url(#SVGID_5_);" d="M349.891,547.826h-0.016c-0.143,0.734-1.412,1.447-5.471,1.757
		c-7.515,0.571-18.708,0.49-18.708,0.49h-28.826h-18.497h-28.826c0,0-11.191,0.082-18.708-0.49
		c-4.059-0.309-5.328-1.023-5.471-1.757h-0.016c0,0-0.251,1.9,1.892,2.697c2.144,0.797,10.232,1.102,15.318,1.102
		c2.993,0,21.273,0,35.81,0c10.163,0,18.497,0,18.497,0c14.538,0,32.817,0,35.81,0c5.086,0,13.173-0.306,15.318-1.102
		C350.144,549.726,349.891,547.826,349.891,547.826z"/>
	
		<radialGradient id="SVGID_6_" cx="189.2314" cy="254.6007" r="39.1962" fx="201.2657" fy="252.0604" gradientTransform="matrix(0.7295 -0.607 -0.8942 -1.0748 311.9241 934.5873)" gradientUnits="userSpaceOnUse">
		<stop  offset="0.2597" style="stop-color:#ECECEE"/>
		<stop  offset="0.4369" style="stop-color:#E7E8EA;stop-opacity:0.7273"/>
		<stop  offset="0.9096" style="stop-color:#E0E0E4;stop-opacity:0"/>
	</radialGradient>
	<path style="fill:url(#SVGID_6_);" d="M246.398,517.396c-0.921,0-1.831,0.047-2.727,0.14c-0.709,6.295-1.608,12.144-2.618,13.829
		c-2.45,4.084-13.561,13.888-14.623,14.786c-1.062,0.898-3.104,2.858,4.411,3.431c7.515,0.571,18.708,0.49,18.708,0.49h22.464
		c0.501-2.029,0.772-4.148,0.772-6.331C272.785,529.191,260.971,517.396,246.398,517.396z"/>
	
		<radialGradient id="SVGID_7_" cx="1992.9265" cy="361.1338" r="39.1962" fx="2004.9607" fy="358.5935" gradientTransform="matrix(-0.7295 -0.607 0.8942 -1.0748 1483.9336 2143.8042)" gradientUnits="userSpaceOnUse">
		<stop  offset="0.2597" style="stop-color:#ECECEE"/>
		<stop  offset="0.4369" style="stop-color:#E7E8EA;stop-opacity:0.7273"/>
		<stop  offset="0.9096" style="stop-color:#E0E0E4;stop-opacity:0"/>
	</radialGradient>
	<path style="fill:url(#SVGID_7_);" d="M328.856,517.396c0.921,0,1.831,0.047,2.727,0.14c0.708,6.295,1.608,12.144,2.617,13.829
		c2.45,4.084,13.561,13.888,14.623,14.786c1.062,0.898,3.104,2.858-4.411,3.431c-7.515,0.571-18.708,0.49-18.708,0.49h-22.464
		c-0.501-2.029-0.772-4.148-0.772-6.331C302.47,529.191,314.284,517.396,328.856,517.396z"/>
	<g>
		
			<radialGradient id="SVGID_8_" cx="207.285" cy="671.3745" r="10.2247" gradientTransform="matrix(1 0 0 -1 91.16 929.29)" gradientUnits="userSpaceOnUse">
			<stop  offset="0" style="stop-color:#5A5A5A"/>
			<stop  offset="0.2622" style="stop-color:#444444"/>
			<stop  offset="0.8532" style="stop-color:#030303"/>
		</radialGradient>
		<circle style="fill:url(#SVGID_8_);" cx="298.455" cy="254.034" r="4.173"/>
		
			<radialGradient id="SVGID_9_" cx="207.3893" cy="671.0406" r="7.9301" gradientTransform="matrix(1 0 0 -1 91.16 929.29)" gradientUnits="userSpaceOnUse">
			<stop  offset="0" style="stop-color:#5A5A5A"/>
			<stop  offset="0.2622" style="stop-color:#444444"/>
			<stop  offset="0.8532" style="stop-color:#030303"/>
		</radialGradient>
		<circle style="fill:url(#SVGID_9_);" cx="298.455" cy="254.034" r="3.714"/>
		
			<linearGradient id="SVGID_10_" gradientUnits="userSpaceOnUse" x1="207.325" y1="672.1882" x2="207.325" y2="677.0292" gradientTransform="matrix(1 0 0 -1 91.16 929.29)">
			<stop  offset="0" style="stop-color:#5A5A5A"/>
			<stop  offset="0.1086" style="stop-color:#575757"/>
			<stop  offset="0.2547" style="stop-color:#4E4E4E"/>
			<stop  offset="0.4221" style="stop-color:#404141"/>
			<stop  offset="0.6055" style="stop-color:#2D2E2E"/>
			<stop  offset="0.7998" style="stop-color:#111212"/>
			<stop  offset="0.8532" style="stop-color:#030303"/>
		</linearGradient>
		<circle style="fill:url(#SVGID_10_);" cx="298.485" cy="254.034" r="3.109"/>
		
			<radialGradient id="SVGID_11_" cx="207.2851" cy="678.2183" r="4.1763" gradientTransform="matrix(1 0 0 -1 91.16 929.29)" gradientUnits="userSpaceOnUse">
			<stop  offset="0.1265" style="stop-color:#464646"/>
			<stop  offset="0.2571" style="stop-color:#434343"/>
			<stop  offset="0.4328" style="stop-color:#3B3C3C"/>
			<stop  offset="0.6342" style="stop-color:#2E2F2F"/>
			<stop  offset="0.8529" style="stop-color:#1A1B1B"/>
			<stop  offset="1" style="stop-color:#010101"/>
		</radialGradient>
		<circle style="fill:url(#SVGID_11_);" cx="298.455" cy="254.034" r="2.858"/>
		
			<radialGradient id="SVGID_12_" cx="207.2849" cy="674.6921" r="2.7144" gradientTransform="matrix(1 0 0 -1 91.16 929.29)" gradientUnits="userSpaceOnUse">
			<stop  offset="0.4535" style="stop-color:#464646"/>
			<stop  offset="0.8532" style="stop-color:#464646;stop-opacity:0"/>
		</radialGradient>
		<circle style="fill:url(#SVGID_12_);" cx="298.455" cy="253.935" r="2.858"/>
		<g>
			
				<radialGradient id="SVGID_13_" cx="207.2882" cy="675.28" r="2.2492" gradientTransform="matrix(1 0 0 -1 91.16 929.29)" gradientUnits="userSpaceOnUse">
				<stop  offset="0" style="stop-color:#98BAD9"/>
				<stop  offset="0.0489" style="stop-color:#93B5D5"/>
				<stop  offset="0.1144" style="stop-color:#85A9C7"/>
				<stop  offset="0.189" style="stop-color:#6E96B4"/>
				<stop  offset="0.2349" style="stop-color:#5D8AA6"/>
				<stop  offset="0.3554" style="stop-color:#3C607D"/>
				<stop  offset="0.3657" style="stop-color:#416784"/>
				<stop  offset="0.3865" style="stop-color:#49708E"/>
				<stop  offset="0.4155" style="stop-color:#4D7694"/>
				<stop  offset="0.494" style="stop-color:#4F7896"/>
				<stop  offset="0.4966" style="stop-color:#4B7390"/>
				<stop  offset="0.5074" style="stop-color:#3E647F"/>
				<stop  offset="0.5208" style="stop-color:#355A74"/>
				<stop  offset="0.539" style="stop-color:#30546E"/>
				<stop  offset="0.5843" style="stop-color:#2F526C"/>
				<stop  offset="0.5847" style="stop-color:#2F526C"/>
				<stop  offset="0.5937" style="stop-color:#28455C"/>
				<stop  offset="0.604" style="stop-color:#213B4F"/>
				<stop  offset="0.6162" style="stop-color:#1C3446"/>
				<stop  offset="0.6312" style="stop-color:#182E40"/>
				<stop  offset="0.6523" style="stop-color:#162B3C"/>
				<stop  offset="0.7108" style="stop-color:#152A3B"/>
				<stop  offset="0.8253" style="stop-color:#3B5E78"/>
				<stop  offset="0.8256" style="stop-color:#3A5D76"/>
				<stop  offset="0.8307" style="stop-color:#324C63"/>
				<stop  offset="0.8364" style="stop-color:#2A3E53"/>
				<stop  offset="0.8429" style="stop-color:#233346"/>
				<stop  offset="0.8505" style="stop-color:#1E2A3D"/>
				<stop  offset="0.8599" style="stop-color:#1A2437"/>
				<stop  offset="0.873" style="stop-color:#182033"/>
				<stop  offset="0.9096" style="stop-color:#171F32"/>
				<stop  offset="0.9518" style="stop-color:#A3C2CD"/>
				<stop  offset="0.9569" style="stop-color:#92AAB2"/>
				<stop  offset="0.9867" style="stop-color:#444747"/>
				<stop  offset="1" style="stop-color:#292929"/>
			</radialGradient>
			<circle style="fill:url(#SVGID_13_);" cx="298.455" cy="254.01" r="2.269"/>
			
				<radialGradient id="SVGID_14_" cx="207.7521" cy="674.6639" r="2.1853" gradientTransform="matrix(1 0 0 -1 91.16 929.29)" gradientUnits="userSpaceOnUse">
				<stop  offset="0" style="stop-color:#152A3B;stop-opacity:0"/>
				<stop  offset="0.5201" style="stop-color:#16293A;stop-opacity:0.6352"/>
				<stop  offset="0.7072" style="stop-color:#172537;stop-opacity:0.8637"/>
				<stop  offset="0.8188" style="stop-color:#171F32"/>
			</radialGradient>
			<circle style="fill:url(#SVGID_14_);" cx="298.455" cy="254.01" r="1.433"/>
			
				<radialGradient id="SVGID_15_" cx="207.3657" cy="675.2018" r="1.8266" gradientTransform="matrix(1 0 0 -1 91.16 929.29)" gradientUnits="userSpaceOnUse">
				<stop  offset="0.0241" style="stop-color:#FFFFFF;stop-opacity:0"/>
				<stop  offset="0.209" style="stop-color:#F6FBFE;stop-opacity:0.126"/>
				<stop  offset="0.4582" style="stop-color:#E4F5FD;stop-opacity:0.2958"/>
				<stop  offset="0.5964" style="stop-color:#D7F0FC;stop-opacity:0.39"/>
				<stop  offset="0.7582" style="stop-color:#DCF2FD;stop-opacity:0.5385"/>
				<stop  offset="0.8253" style="stop-color:#E1F4FD;stop-opacity:0.6"/>
				<stop  offset="1" style="stop-color:#FFFFFF;stop-opacity:0.87"/>
			</radialGradient>
			<path style="fill:url(#SVGID_15_);" d="M300.342,254.171c-0.241-0.149-0.524-0.236-0.828-0.236c-0.871,0-1.577,0.706-1.577,1.577
				c0,0.102,0.011,0.202,0.029,0.299c0.171,0.052,0.352,0.081,0.54,0.081C299.482,255.892,300.279,255.132,300.342,254.171z"/>
			
				<radialGradient id="SVGID_16_" cx="207.3073" cy="675.2019" r="1.9341" gradientTransform="matrix(1 0 0 -1 91.16 929.29)" gradientUnits="userSpaceOnUse">
				<stop  offset="0.3795" style="stop-color:#FFFFFF"/>
				<stop  offset="0.6292" style="stop-color:#FCFEFF;stop-opacity:0.6629"/>
				<stop  offset="0.7191" style="stop-color:#F3FAFE;stop-opacity:0.5415"/>
				<stop  offset="0.783" style="stop-color:#E7F6FD;stop-opacity:0.4552"/>
				<stop  offset="0.8313" style="stop-color:#D7F0FC;stop-opacity:0.39"/>
				<stop  offset="0.8497" style="stop-color:#D1EEFC;stop-opacity:0.43"/>
				<stop  offset="0.8735" style="stop-color:#C0E8FB;stop-opacity:0.4818"/>
				<stop  offset="0.9002" style="stop-color:#A2DEF9;stop-opacity:0.5401"/>
				<stop  offset="0.9277" style="stop-color:#78D2F7;stop-opacity:0.6"/>
				<stop  offset="1" style="stop-color:#FFFFFF;stop-opacity:0"/>
			</radialGradient>
			<path style="fill:url(#SVGID_16_);" d="M296.791,253.188l0.721,0.422c-0.053,0.117-0.085,0.244-0.09,0.38h-0.834
				C296.595,253.701,296.667,253.429,296.791,253.188z M296.875,253.044l0.721,0.419c0.161-0.236,0.419-0.399,0.717-0.434v-0.835
				C297.707,252.232,297.182,252.56,296.875,253.044z"/>
			
				<radialGradient id="SVGID_17_" cx="216.0685" cy="1105.1328" r="0.5668" gradientTransform="matrix(0.8258 -0.564 -0.564 -0.8258 743.8844 1289.5061)" gradientUnits="userSpaceOnUse">
				<stop  offset="0.0241" style="stop-color:#FFFFFF;stop-opacity:0"/>
				<stop  offset="1" style="stop-color:#FFFFFF;stop-opacity:0.87"/>
			</radialGradient>
			<path style="fill:url(#SVGID_17_);" d="M299.641,254.897c0.09,0.133,0.021,0.338-0.156,0.459s-0.394,0.111-0.484-0.022
				c-0.091-0.133-0.021-0.338,0.156-0.459C299.334,254.755,299.55,254.765,299.641,254.897z"/>
			
				<radialGradient id="SVGID_18_" cx="216.0849" cy="1105.9684" r="0.334" gradientTransform="matrix(0.8258 -0.564 -0.564 -0.8258 743.8844 1289.5061)" gradientUnits="userSpaceOnUse">
				<stop  offset="0" style="stop-color:#FFFFFF;stop-opacity:0.87"/>
				<stop  offset="1" style="stop-color:#FFFFFF;stop-opacity:0"/>
			</radialGradient>
			<path style="fill:url(#SVGID_18_);" d="M298.928,254.25c0.053,0.078,0.012,0.199-0.092,0.27s-0.232,0.066-0.285-0.013
				c-0.053-0.078-0.012-0.199,0.092-0.27S298.874,254.172,298.928,254.25z"/>
			
				<radialGradient id="SVGID_19_" cx="216.1071" cy="1106.9659" r="0.2274" gradientTransform="matrix(0.8258 -0.564 -0.564 -0.8258 743.8844 1289.5061)" gradientUnits="userSpaceOnUse">
				<stop  offset="0" style="stop-color:#FFFFFF;stop-opacity:0.87"/>
				<stop  offset="1" style="stop-color:#FFFFFF;stop-opacity:0"/>
			</radialGradient>
			<path style="fill:url(#SVGID_19_);" d="M298.267,253.438c0.036,0.053,0.008,0.136-0.063,0.184
				c-0.071,0.049-0.158,0.045-0.194-0.009c-0.036-0.053-0.009-0.136,0.063-0.184C298.143,253.381,298.23,253.385,298.267,253.438z"
				/>
		</g>
	</g>
</g>
</svg>
